<?xml version="1.0" encoding="UTF-8"?>
<svg id="Layer_2" data-name="Layer 2" xmlns="http://www.w3.org/2000/svg" viewBox="0 0 468.18 468.18">
  <defs>
    <style>
      .cls-1 {
        fill: #eae9d7;
      }

      .cls-2 {
        fill: #822819;
        stroke: #eae9d7;
        stroke-miterlimit: 10;
        stroke-width: 20px;
      }
    </style>
  </defs>
  <g id="Layer_1-2" data-name="Layer 1">
    <g>
      <rect class="cls-2" x="10" y="10" width="448.18" height="448.18" rx="80.03" ry="80.03"/>
      <path class="cls-1" d="M69,339.42c36.46,2.61,69.31-6.47,98.51-28.81-14.22-1.04-27.21-5.34-38.6-13.9-11.45-8.61-19.42-19.74-24.15-33.72,10.02,1.52,19.68,1.57,29.69-1.07-33.7-10.18-51.62-32.42-53.94-67.58,5.34,2.03,9.99,4.17,14.86,5.54,4.88,1.38,9.98,1.99,15.24,2.53-14.05-10.8-23.64-24.35-27.47-41.63-3.82-17.22-1.32-33.52,7.38-49.24,36.88,43.39,83.36,67.24,140.38,71.27-.33-2.46-.59-4.52-.89-6.57-5.31-36.92,21.17-71.83,58.24-76.59,21.99-2.82,41.06,3.58,57.05,18.91,1.68,1.61,3.17,1.75,5.15,1.29,13.26-3.06,25.85-7.84,37.7-14.54,.58-.33,1.17-.63,2.35-1.27-5.37,16.07-15.04,27.99-28.44,37.47,3.03-.53,6.07-.98,9.07-1.6,3.21-.66,6.41-1.38,9.58-2.24,3.07-.83,6.11-1.8,9.11-2.84,2.99-1.03,5.92-2.22,9.37-2.87-2.89,3.76-5.44,7.84-8.74,11.2-7.04,7.15-14.34,14.06-21.8,20.77-2.01,1.8-2.82,3.35-2.79,6.01,.65,47.25-13.62,89.66-42.5,126.91-28.91,37.27-66.82,60.38-113.31,68.8-48.64,8.82-94.57,1.26-137.36-23.94-1.25-.73-2.46-1.53-3.68-2.29Z"/>
    </g>
  </g>
</svg>