<?xml version="1.0" encoding="UTF-8"?>
<svg id="Layer_2" data-name="Layer 2" xmlns="http://www.w3.org/2000/svg" viewBox="0 0 468.18 468.18">
  <defs>
    <style>
      .cls-1 {
        fill: #eae9d7;
      }

      .cls-2 {
        fill: #822819;
        stroke: #eae9d7;
        stroke-miterlimit: 10;
        stroke-width: 20px;
      }
    </style>
  </defs>
  <g id="Layer_1-2" data-name="Layer 1">
    <rect class="cls-2" x="10" y="10" width="448.18" height="448.18" rx="80.03" ry="80.03"/>
    <g>
      <path class="cls-1" d="M398.26,233.94c-.23,18.99-.32,37.98-.73,56.97-.28,13.18-1,26.34-4.4,39.19-6.96,26.3-22.31,45.74-47.1,57.32-12.4,5.79-25.65,8.4-39.24,9.23-33.51,2.03-67.06,1.21-100.6,1.19-14.95-.01-29.92-.48-44.85-1.24-17.12-.88-33.55-4.82-48.3-13.92-19.85-12.25-32.23-30.05-38.07-52.53-2.48-9.56-3.61-19.32-4.02-29.16-1.55-37.56-.98-75.14-.66-112.7,.1-11.87,.62-23.79,1.95-35.57,3-26.65,14.2-48.97,36.57-64.81,10.95-7.75,23.28-12.18,36.36-14.69,13.21-2.54,26.61-2.91,39.99-2.96,34.84-.13,69.68-.08,104.51,.16,13.65,.1,27.3,.91,40.62,4.43,24.74,6.52,43.58,20.66,55.52,43.45,6.26,11.95,9.72,24.86,10.49,38.25,1,17.31,1.3,34.66,1.73,52,.21,8.47,.04,16.94,.04,25.41,.07,0,.13,0,.2,0Zm-164.4,134.02s0-.02,0-.02c17.9,0,35.79,.18,53.69-.07,11.32-.16,22.67-.54,33.79-3.17,15.99-3.78,28.66-12.19,36.99-26.55,5.19-8.95,7.76-18.83,8.46-29.05,.86-12.53,1.57-25.1,1.56-37.65,0-33.95-.36-67.89-.74-101.84-.09-8.4-1.09-16.75-3.24-24.93-4.11-15.62-12.84-27.79-27.09-35.63-10.06-5.53-21.12-7.7-32.46-8.33-10.5-.58-21.02-1.11-31.53-1.08-34.63,.08-69.26,.35-103.89,.72-8.67,.09-17.28,1.19-25.7,3.54-15.51,4.35-27.39,13.32-34.94,27.62-5.25,9.96-7.43,20.83-7.88,31.96-.65,16.1-1.15,32.22-1.2,48.34-.08,30.87-.68,61.75,1.16,92.6,.59,9.87,2.29,19.55,6.39,28.62,7.79,17.25,21.4,27.31,39.57,31.64,11.52,2.75,23.29,3.03,35.02,3.19,17.35,.25,34.7,.06,52.05,.06Z"/>
      <path class="cls-1" d="M318.33,233.9c.1,46.38-37.37,83.86-84.24,84.27-46.07,.41-84.42-37.89-84.3-84.18,.12-46.75,37.96-84.62,84.31-84.36,46.73,.26,84.12,37.68,84.22,84.27Zm-29.67,.12c.14-29.94-24.16-54.56-54.02-54.73-30.42-.18-55.07,24.01-55.19,54.17-.13,30.4,24.07,54.92,54.32,55.04,30.33,.12,54.76-24.12,54.9-54.48Z"/>
      <path class="cls-1" d="M301.9,146.29c0-10.81,8.86-19.67,19.71-19.71,10.71-.03,19.77,9.02,19.74,19.73-.04,10.96-8.83,19.7-19.86,19.75-10.76,.04-19.59-8.87-19.58-19.77Z"/>
    </g>
  </g>
</svg>