<?xml version="1.0" encoding="UTF-8"?>
<svg id="Layer_2" data-name="Layer 2" xmlns="http://www.w3.org/2000/svg" viewBox="0 0 468.18 468.18">
  <defs>
    <style>
      .cls-1 {
        fill: #eae9d7;
      }

      .cls-2 {
        fill: #822819;
        stroke: #eae9d7;
        stroke-miterlimit: 10;
        stroke-width: 20px;
      }
    </style>
  </defs>
  <g id="Layer_1-2" data-name="Layer 1">
    <rect class="cls-2" x="10" y="10" width="448.18" height="448.18" rx="80.03" ry="80.03"/>
    <path class="cls-1" d="M298.23,282.73c2.45-16.01,4.79-31.26,7.23-47.16h-46.33c.62-13.86,.24-27.24,2.12-40.3,1.54-10.7,11.17-16.41,24.26-16.82,7.04-.22,14.1-.04,21.57-.04v-40.26c-19.59-2.62-39.2-5.82-58.8,0-23.05,6.83-37.95,26.47-39.32,52.24-.67,12.57-.26,25.2-.34,37.81-.01,2.08,0,4.15,0,6.96h-41.64v47.57c11.3,0,22.5,0,33.69,0q7.95,0,7.95,8.03c0,33.42,0,66.85,0,100.27,0,2.23,0,4.46,0,6.77-64.37-7.72-135.51-65.97-139.45-155.66-3.95-89.96,65.7-166.81,155.92-171.62,92.06-4.91,168.85,65.13,173.83,155.3,5.24,94.87-66.56,162.38-138.89,172.08-.12-1.84-.33-3.65-.33-5.45-.02-34.57,.07-69.14-.12-103.71-.03-4.75,1.28-6.26,6.07-6.11,10.66,.34,21.33,.11,32.58,.11Z"/>
  </g>
</svg>