<svg xmlns="http://www.w3.org/2000/svg" viewBox="0 0 810.3 110.9"><defs><style>.cls-1{fill:#eae9d7;}</style></defs><g id="Capa_2" data-name="Capa 2"><g id="Layer_2" data-name="Layer 2"><g id="Layer_1-2" data-name="Layer 1-2"><path class="cls-1" d="M56.1,0,43,110.8H16.3L0,0H25.4L38.2,86.7,48.3,0Z"/><path class="cls-1" d="M113.1,110.8H67.3V17.7h41.8l4.1,7.7H92.7V41.6h16.5l4.1,7.7H92.7v53.9h16.5l3.9,7.6Z"/><path class="cls-1" d="M171.1,110.8H125.3V17.7h25.4v85.5h16.4l4,7.6Z"/><path class="cls-1" d="M254.6,64.2a53.28,53.28,0,0,1-9.8,31.5c-7.3,10.1-16.6,15.1-28.1,15.1s-20.8-5-28.1-15.1c-6.6-9.1-9.8-19.6-9.8-31.5a53.06,53.06,0,0,1,9.8-31.5c7.3-10.1,16.6-15.1,28.1-15.1s20.7,5.1,28.1,15.3a52.67,52.67,0,0,1,9.8,31.3Zm-7.8,0a45.28,45.28,0,0,0-7.7-25.8c-5.8-8.5-13.2-12.8-22.4-12.8a24.45,24.45,0,0,0-11.6,3V99.9a24.45,24.45,0,0,0,11.6,3c9.2,0,16.6-4.3,22.4-12.8A45.37,45.37,0,0,0,246.8,64.2Z"/><path class="cls-1" d="M314.3,108.1a29.25,29.25,0,0,1-12.5,2.7c-11.5-.1-20.9-5.1-28-15.1-6.6-9.1-9.8-19.6-9.8-31.5a53.06,53.06,0,0,1,9.8-31.5c7.3-10.1,16.6-15.1,28-15.1a30.25,30.25,0,0,1,12.5,2.7v8.8a24.08,24.08,0,0,0-12.5-3.5,24.45,24.45,0,0,0-11.6,3V99.9a24.45,24.45,0,0,0,11.6,3,23,23,0,0,0,12.5-3.6v8.8Z"/><path class="cls-1" d="M373.5,110.8H327.7V17.7h41.8l4,7.7H353V41.6h16.5l4,7.7H353v53.9h16.5l4,7.6Z"/><path class="cls-1" d="M473,110.8h-7.8V40.9L445.8,13.1v97.8H420.4V0h27.8l17,24.5V0H473V110.8Z"/><path class="cls-1" d="M543.5,110.8H518.2V49.2H495.3v61.6h-7.8V42.3c0-6.4,3.1-12.2,9.4-17.4,5.9-4.9,12.1-7.3,18.6-7.3h28v93.2ZM518.2,41.5V25.8a22.84,22.84,0,0,0-15.4,4.1,21.9,21.9,0,0,0-7.2,11.7l22.6-.1Z"/><path class="cls-1" d="M616.1,55.8q0,15.75-8.1,26.7c-5.4,7.3-12,11.1-20,11.3h-4v17H558.5V17.7h14.8c6.5.1,11.4.1,14.7.1,8.7,0,15.8,4.3,21.2,12.9a46.89,46.89,0,0,1,6.9,25.1Zm-7.9,0a40.8,40.8,0,0,0-4.7-19.3c-3.9-7.2-9-10.8-15.5-10.8h-4V85.8h4.1c5.6-.2,10.4-3.2,14.3-8.9S608.2,64.2,608.2,55.8Z"/><path class="cls-1" d="M700.1,64.2a53.28,53.28,0,0,1-9.8,31.5c-7.3,10.1-16.6,15.1-28,15.1s-20.8-5-28-15.1c-6.6-9.1-9.8-19.6-9.8-31.5a53.06,53.06,0,0,1,9.8-31.5c7.3-10.1,16.6-15.1,28-15.1s20.7,5.1,28,15.3a52.67,52.67,0,0,1,9.8,31.3Zm-7.9,0a45.28,45.28,0,0,0-7.7-25.8c-5.8-8.5-13.2-12.8-22.4-12.8a24.45,24.45,0,0,0-11.6,3V99.9a24.45,24.45,0,0,0,11.6,3c9.2,0,16.6-4.3,22.4-12.8A44.63,44.63,0,0,0,692.2,64.2Z"/><path class="cls-1" d="M758,110.8H712.2V17.7h25.3v85.5H754l4,7.6Z"/><path class="cls-1" d="M810.3,110.8H771.2l-4.2-7.7h8.9V25.4h-4.7L767,17.7h39.1l4.2,7.7h-9v77.8h4.8l4.2,7.6Z"/></g></g></g></svg>